<svg width="254" height="66" viewBox="0 0 254 66" fill="none" xmlns="http://www.w3.org/2000/svg">
<g clip-path="url(#clip0_5821_32)">
<path d="M111 1.88494C111 0.845267 111.895 0.00244141 113 0.00244141H141C142.105 0.00244141 143 0.845267 143 1.88494V28.24C143 29.2797 142.105 30.1225 141 30.1225H113C111.895 30.1225 111 29.2797 111 28.24V1.88494Z" fill="#0278FE"/>
<path d="M143 5.6499H111V7.5324H143V5.6499Z" fill="#2A2C2F"/>
<path d="M124 5.6499H122V30.1224H124V5.6499Z" fill="#2A2C2F"/>
<path d="M118.313 64.9488L119.151 62.3282H123.952L124.79 64.9488H129.052L124.251 51.2578H118.853L114.052 64.9488H118.313ZM120.046 59.5472L121.495 55.0282H121.609L123.058 59.5472H120.046Z" fill="white"/>
<path d="M130.453 64.9488H134.402V60.4296H135.765L138.322 64.9488H142.612L139.657 59.8414C141.206 59.1395 142.129 57.8092 142.129 55.9106C142.129 52.9959 139.963 51.2578 136.731 51.2578H130.453V64.9488ZM134.402 57.5418V54.226H135.794C137.179 54.226 138.01 54.734 138.01 55.9106C138.01 57.0805 137.179 57.5418 135.794 57.5418H134.402Z" fill="white"/>
<path d="M143.414 54.2527H147.789V64.9488H151.681V54.2527H156.056V51.2578H143.414V54.2527Z" fill="white"/>
<path d="M170.973 55.7771H174.964C174.659 53.0295 172.01 51.0708 168.572 51.0708C164.652 51.0708 161.47 53.611 161.47 58.1302C161.47 62.462 164.354 65.136 168.601 65.136C172.408 65.136 175.135 62.9434 175.135 59.1997V57.3012H168.686V59.9485H171.328C171.293 61.1384 170.398 61.9005 168.629 61.9005C166.584 61.9005 165.533 60.4833 165.533 58.0766C165.533 55.7035 166.669 54.3064 168.658 54.3064C169.893 54.3064 170.732 54.8411 170.973 55.7771Z" fill="white"/>
<path d="M180.305 64.9488L181.143 62.3282H185.945L186.783 64.9488H191.044L186.243 51.2578H180.845L176.044 64.9488H180.305ZM182.038 59.5472L183.487 55.0282H183.601L185.05 59.5472H182.038Z" fill="white"/>
<path d="M192.445 64.9488H202.275V61.9539H196.394V51.2578H192.445V64.9488Z" fill="white"/>
<path d="M203.871 64.9488H213.7V61.9539H207.82V51.2578H203.871V64.9488Z" fill="white"/>
<path d="M215.297 64.9488H225.751V61.9539H219.245V59.6008H225.24V56.6058H219.245V54.2527H225.779V51.2578H215.297V64.9488Z" fill="white"/>
<path d="M227.738 64.9488H231.687V60.4296H233.05L235.607 64.9488H239.897L236.942 59.8414C238.491 59.1395 239.414 57.8092 239.414 55.9106C239.414 52.9959 237.248 51.2578 234.016 51.2578H227.738V64.9488ZM231.687 57.5418V54.226H233.079C234.464 54.226 235.295 54.734 235.295 55.9106C235.295 57.0805 234.464 57.5418 233.079 57.5418H231.687Z" fill="white"/>
<path d="M239.817 51.2578L245.158 60.6436V64.9488H249.078V60.6436L254.419 51.2578H250.016L247.175 56.8198H247.061L244.221 51.2578H239.817Z" fill="white"/>
<path d="M108.637 51.2578V64.9487H105.342L100.086 57.7556H100.001V64.9487H96.0522V51.2578H99.4045L104.575 58.4241H104.689V51.2578H108.637Z" fill="white"/>
<path d="M83.6118 64.9487V51.2578H94.0947V54.2527H87.5607V56.6058H93.555V59.6007H87.5607V61.9538H94.0663V64.9487H83.6118Z" fill="white"/>
<path d="M69.4839 54.2527V51.2578H82.1259V54.2527H77.7509V64.9487H73.8589V54.2527H69.4839Z" fill="white"/>
<path d="M57.4399 64.9487V51.2578H67.9229V54.2527H61.3888V56.6058H67.3831V59.6007H61.3888V61.9538H67.8945V64.9487H57.4399Z" fill="white"/>
<path d="M46.0137 64.9487V51.2578H49.9625V61.9538H55.8432V64.9487H46.0137Z" fill="white"/>
<path d="M32.8887 64.9487V51.2578H39.1671C40.2466 51.2578 41.1912 51.4584 42.0009 51.8595C42.8105 52.2606 43.4402 52.8243 43.8901 53.5508C44.3399 54.2772 44.5648 55.1262 44.5648 56.0978C44.5648 57.0782 44.3328 57.9272 43.8687 58.6447C43.4095 59.3623 42.7632 59.9149 41.9298 60.3026C41.1012 60.6904 40.133 60.8842 39.025 60.8842H35.275V57.9963H38.2296C38.6936 57.9963 39.0889 57.9205 39.4156 57.769C39.7471 57.613 40.0004 57.3924 40.1756 57.1072C40.3555 56.822 40.4455 56.4855 40.4455 56.0978C40.4455 55.7056 40.3555 55.3713 40.1756 55.095C40.0004 54.8142 39.7471 54.6003 39.4156 54.4532C39.0889 54.3017 38.6936 54.226 38.2296 54.226H36.8375V64.9487H32.8887Z" fill="white"/>
<path d="M31.0177 51.2578V64.9487H27.0688V51.2578H31.0177Z" fill="white"/>
<path d="M13.7095 64.9487V51.2578H19.9879C21.0674 51.2578 22.012 51.4428 22.8217 51.8127C23.6313 52.1826 24.261 52.7151 24.7109 53.4104C25.1607 54.1056 25.3856 54.939 25.3856 55.9106C25.3856 56.891 25.1536 57.7178 24.6896 58.3907C24.2303 59.0637 23.584 59.5717 22.7506 59.9149C21.922 60.2581 20.9538 60.4296 19.8458 60.4296H16.0958V57.5417H19.0504C19.5144 57.5417 19.9097 57.4882 20.2364 57.3813C20.5679 57.2699 20.8212 57.0938 20.9964 56.8532C21.1763 56.6125 21.2663 56.2983 21.2663 55.9106C21.2663 55.5184 21.1763 55.1997 20.9964 54.9546C20.8212 54.705 20.5679 54.5223 20.2364 54.4064C19.9097 54.2861 19.5144 54.226 19.0504 54.226H17.6583V64.9487H13.7095ZM22.2322 58.6648L25.8685 64.9487H21.5788L18.0276 58.6648H22.2322Z" fill="white"/>
<path d="M-0.418457 54.2527V51.2578H12.2235V54.2527H7.84856V64.9487H3.95653V54.2527H-0.418457Z" fill="white"/>
</g>
<defs>
<clipPath id="clip0_5821_32">
<rect width="254" height="65.8876" fill="white" transform="translate(0 0.00244141)"/>
</clipPath>
</defs>
</svg>
